# MagicaVoxel @ Ephtracy

# group
o 

# material
mtllib Broken sword.mtl
usemtl palette

# normals
vn -1 0 0
vn 1 0 0
vn 0 0 1
vn 0 0 -1
vn 0 -1 0
vn 0 1 0

# texcoords
vt 0.197266 0.5
vt 0.224609 0.5
vt 0.939453 0.5
vt 0.943359 0.5
vt 0.951172 0.5
vt 0.966797 0.5
vt 0.974609 0.5
vt 0.978516 0.5
vt 0.982422 0.5
vt 0.986328 0.5

# verts
v -0.4 0.5 0
v -0.4 0.5 -0.1
v -0.4 0.6 0
v -0.4 0.6 -0.1
v -0.3 0.4 0
v -0.3 0.4 -0.1
v -0.3 0.5 0
v -0.3 0.5 -0.1
v -0.3 0.6 0
v -0.3 0.6 -0.1
v -0.3 0.7 0
v -0.3 0.7 -0.1
v -0.3 0.8 0
v -0.3 0.8 -0.1
v -0.3 1 0
v -0.3 1 -0.1
v -0.3 1.9 0
v -0.3 1.9 -0.1
v -0.3 2 0
v -0.3 2 -0.1
v -0.3 2.3 0
v -0.3 2.3 -0.1
v -0.3 2.4 0
v -0.3 2.4 -0.1
v -0.3 2.8 0
v -0.3 2.8 -0.1
v -0.3 2.9 0
v -0.3 2.9 -0.1
v -0.2 -0.3 0
v -0.2 -0.3 -0.1
v -0.2 -0.2 0
v -0.2 -0.2 -0.1
v -0.2 0.2 0
v -0.2 0.2 -0.1
v -0.2 0.3 0
v -0.2 0.3 -0.1
v -0.2 0.4 0
v -0.2 0.4 -0.1
v -0.1 -0.4 0
v -0.1 -0.4 -0.1
v -0.1 -0.3 0
v -0.1 -0.3 -0.1
v -0.1 -0.2 0
v -0.1 -0.2 -0.1
v -0.1 0 0
v -0.1 0 -0.1
v -0.1 0.2 0
v -0.1 0.2 -0.1
v 0.1 -0.4 0
v 0.1 -0.4 -0.1
v 0.1 -0.3 0
v 0.1 -0.3 -0.1
v 0.1 -0.2 0
v 0.1 -0.2 -0.1
v 0.1 0 0
v 0.1 0 -0.1
v 0.1 0.2 0
v 0.1 0.2 -0.1
v 0.2 -0.3 0
v 0.2 -0.3 -0.1
v 0.2 -0.2 0
v 0.2 -0.2 -0.1
v 0.2 0.2 0
v 0.2 0.2 -0.1
v 0.2 0.3 0
v 0.2 0.3 -0.1
v 0.2 0.4 0
v 0.2 0.4 -0.1
v 0.3 0.4 0
v 0.3 0.4 -0.1
v 0.3 0.5 0
v 0.3 0.5 -0.1
v 0.3 0.6 0
v 0.3 0.6 -0.1
v 0.3 0.7 0
v 0.3 0.7 -0.1
v 0.3 0.8 0
v 0.3 0.8 -0.1
v 0.3 1 0
v 0.3 1 -0.1
v 0.3 2 0
v 0.3 2 -0.1
v 0.3 2.1 0
v 0.3 2.1 -0.1
v 0.3 2.6 0
v 0.3 2.6 -0.1
v 0.3 2.7 0
v 0.3 2.7 -0.1
v 0.3 2.9 0
v 0.3 2.9 -0.1
v 0.4 0.5 0
v 0.4 0.5 -0.1
v 0.4 0.6 0
v 0.4 0.6 -0.1
v -0.4 0.5 0
v -0.4 0.6 0
v -0.3 0.4 0
v -0.3 0.5 0
v -0.3 0.6 0
v -0.3 0.7 0
v -0.3 0.8 0
v -0.3 1 0
v -0.3 1.9 0
v -0.3 2 0
v -0.3 2.3 0
v -0.3 2.4 0
v -0.3 2.8 0
v -0.3 2.9 0
v -0.2 -0.3 0
v -0.2 -0.2 0
v -0.2 0.2 0
v -0.2 0.3 0
v -0.2 0.4 0
v -0.2 0.5 0
v -0.2 0.6 0
v -0.2 0.7 0
v -0.2 0.8 0
v -0.2 1 0
v -0.2 1.8 0
v -0.2 2 0
v -0.2 2.3 0
v -0.2 2.4 0
v -0.2 2.8 0
v -0.1 -0.4 0
v -0.1 -0.3 0
v -0.1 -0.2 0
v -0.1 0 0
v -0.1 0.2 0
v -0.1 0.3 0
v -0.1 0.4 0
v -0.1 0.5 0
v -0.1 0.6 0
v -0.1 0.7 0
v -0.1 1.4 0
v -0.1 1.8 0
v -0.1 1.9 0
v -0.1 2.6 0
v -0.1 2.8 0
v 0 0.5 0
v 0 0.6 0
v 0 0.7 0
v 0 1.2 0
v 0 1.4 0
v 0 1.5 0
v 0 1.8 0
v 0 1.9 0
v 0 2 0
v 0 2.2 0
v 0 2.4 0
v 0.1 -0.4 0
v 0.1 -0.3 0
v 0.1 -0.2 0
v 0.1 0 0
v 0.1 0.2 0
v 0.1 0.3 0
v 0.1 0.4 0
v 0.1 0.5 0
v 0.1 0.6 0
v 0.1 0.7 0
v 0.1 1 0
v 0.1 1.2 0
v 0.1 1.3 0
v 0.1 1.4 0
v 0.1 1.5 0
v 0.1 1.6 0
v 0.1 1.9 0
v 0.1 2 0
v 0.1 2.2 0
v 0.1 2.4 0
v 0.1 2.6 0
v 0.1 2.8 0
v 0.2 -0.3 0
v 0.2 -0.2 0
v 0.2 0.2 0
v 0.2 0.3 0
v 0.2 0.4 0
v 0.2 0.5 0
v 0.2 0.6 0
v 0.2 0.7 0
v 0.2 0.8 0
v 0.2 1 0
v 0.2 1.3 0
v 0.2 1.4 0
v 0.2 1.6 0
v 0.2 1.9 0
v 0.2 2 0
v 0.2 2.1 0
v 0.2 2.6 0
v 0.2 2.7 0
v 0.2 2.8 0
v 0.3 0.4 0
v 0.3 0.5 0
v 0.3 0.6 0
v 0.3 0.7 0
v 0.3 0.8 0
v 0.3 1 0
v 0.3 2 0
v 0.3 2.1 0
v 0.3 2.6 0
v 0.3 2.7 0
v 0.3 2.9 0
v 0.4 0.5 0
v 0.4 0.6 0
v -0.4 0.5 -0.1
v -0.4 0.6 -0.1
v -0.3 0.4 -0.1
v -0.3 0.5 -0.1
v -0.3 0.6 -0.1
v -0.3 0.7 -0.1
v -0.3 0.8 -0.1
v -0.3 1 -0.1
v -0.3 1.9 -0.1
v -0.3 2 -0.1
v -0.3 2.3 -0.1
v -0.3 2.4 -0.1
v -0.3 2.8 -0.1
v -0.3 2.9 -0.1
v -0.2 -0.3 -0.1
v -0.2 -0.2 -0.1
v -0.2 0.2 -0.1
v -0.2 0.3 -0.1
v -0.2 0.4 -0.1
v -0.2 0.5 -0.1
v -0.2 0.6 -0.1
v -0.2 0.7 -0.1
v -0.2 0.8 -0.1
v -0.2 1 -0.1
v -0.2 1.8 -0.1
v -0.2 2 -0.1
v -0.2 2.3 -0.1
v -0.2 2.4 -0.1
v -0.2 2.8 -0.1
v -0.1 -0.4 -0.1
v -0.1 -0.3 -0.1
v -0.1 -0.2 -0.1
v -0.1 0 -0.1
v -0.1 0.2 -0.1
v -0.1 0.3 -0.1
v -0.1 0.4 -0.1
v -0.1 0.5 -0.1
v -0.1 0.6 -0.1
v -0.1 0.7 -0.1
v -0.1 1.4 -0.1
v -0.1 1.8 -0.1
v -0.1 1.9 -0.1
v -0.1 2.6 -0.1
v -0.1 2.8 -0.1
v 0 0.5 -0.1
v 0 0.6 -0.1
v 0 0.7 -0.1
v 0 1.2 -0.1
v 0 1.4 -0.1
v 0 1.5 -0.1
v 0 1.8 -0.1
v 0 1.9 -0.1
v 0 2 -0.1
v 0 2.2 -0.1
v 0 2.4 -0.1
v 0.1 -0.4 -0.1
v 0.1 -0.3 -0.1
v 0.1 -0.2 -0.1
v 0.1 0 -0.1
v 0.1 0.2 -0.1
v 0.1 0.3 -0.1
v 0.1 0.4 -0.1
v 0.1 0.5 -0.1
v 0.1 0.6 -0.1
v 0.1 0.7 -0.1
v 0.1 1 -0.1
v 0.1 1.2 -0.1
v 0.1 1.3 -0.1
v 0.1 1.4 -0.1
v 0.1 1.5 -0.1
v 0.1 1.6 -0.1
v 0.1 1.9 -0.1
v 0.1 2 -0.1
v 0.1 2.2 -0.1
v 0.1 2.4 -0.1
v 0.1 2.6 -0.1
v 0.1 2.8 -0.1
v 0.2 -0.3 -0.1
v 0.2 -0.2 -0.1
v 0.2 0.2 -0.1
v 0.2 0.3 -0.1
v 0.2 0.4 -0.1
v 0.2 0.5 -0.1
v 0.2 0.6 -0.1
v 0.2 0.7 -0.1
v 0.2 0.8 -0.1
v 0.2 1 -0.1
v 0.2 1.3 -0.1
v 0.2 1.4 -0.1
v 0.2 1.6 -0.1
v 0.2 1.9 -0.1
v 0.2 2 -0.1
v 0.2 2.1 -0.1
v 0.2 2.6 -0.1
v 0.2 2.7 -0.1
v 0.2 2.8 -0.1
v 0.3 0.4 -0.1
v 0.3 0.5 -0.1
v 0.3 0.6 -0.1
v 0.3 0.7 -0.1
v 0.3 0.8 -0.1
v 0.3 1 -0.1
v 0.3 2 -0.1
v 0.3 2.1 -0.1
v 0.3 2.6 -0.1
v 0.3 2.7 -0.1
v 0.3 2.9 -0.1
v 0.4 0.5 -0.1
v 0.4 0.6 -0.1
v -0.1 -0.4 0
v 0.1 -0.4 0
v -0.1 -0.4 -0.1
v 0.1 -0.4 -0.1
v -0.2 -0.3 0
v -0.1 -0.3 0
v 0.1 -0.3 0
v 0.2 -0.3 0
v -0.2 -0.3 -0.1
v -0.1 -0.3 -0.1
v 0.1 -0.3 -0.1
v 0.2 -0.3 -0.1
v -0.2 0.2 0
v -0.1 0.2 0
v 0.1 0.2 0
v 0.2 0.2 0
v -0.2 0.2 -0.1
v -0.1 0.2 -0.1
v 0.1 0.2 -0.1
v 0.2 0.2 -0.1
v -0.3 0.4 0
v -0.2 0.4 0
v 0.2 0.4 0
v 0.3 0.4 0
v -0.3 0.4 -0.1
v -0.2 0.4 -0.1
v 0.2 0.4 -0.1
v 0.3 0.4 -0.1
v -0.4 0.5 0
v -0.3 0.5 0
v 0.3 0.5 0
v 0.4 0.5 0
v -0.4 0.5 -0.1
v -0.3 0.5 -0.1
v 0.3 0.5 -0.1
v 0.4 0.5 -0.1
v -0.2 -0.2 0
v -0.1 -0.2 0
v 0.1 -0.2 0
v 0.2 -0.2 0
v -0.2 -0.2 -0.1
v -0.1 -0.2 -0.1
v 0.1 -0.2 -0.1
v 0.2 -0.2 -0.1
v -0.4 0.6 0
v -0.3 0.6 0
v 0.3 0.6 0
v 0.4 0.6 0
v -0.4 0.6 -0.1
v -0.3 0.6 -0.1
v 0.3 0.6 -0.1
v 0.4 0.6 -0.1
v -0.3 2.9 0
v 0.3 2.9 0
v -0.3 2.9 -0.1
v 0.3 2.9 -0.1

# faces
f 3/10/1 2/10/1 1/10/1
f 4/10/1 2/10/1 3/10/1
f 7/10/1 6/10/1 5/10/1
f 8/10/1 6/10/1 7/10/1
f 11/9/1 10/9/1 9/9/1
f 12/9/1 10/9/1 11/9/1
f 13/4/1 12/4/1 11/4/1
f 14/4/1 12/4/1 13/4/1
f 15/10/1 14/10/1 13/10/1
f 16/10/1 14/10/1 15/10/1
f 17/9/1 16/9/1 15/9/1
f 18/9/1 16/9/1 17/9/1
f 19/10/1 18/10/1 17/10/1
f 20/10/1 18/10/1 19/10/1
f 21/9/1 20/9/1 19/9/1
f 22/9/1 20/9/1 21/9/1
f 23/10/1 22/10/1 21/10/1
f 24/10/1 22/10/1 23/10/1
f 25/9/1 24/9/1 23/9/1
f 26/9/1 24/9/1 25/9/1
f 27/8/1 26/8/1 25/8/1
f 28/8/1 26/8/1 27/8/1
f 31/3/1 30/3/1 29/3/1
f 32/3/1 30/3/1 31/3/1
f 35/2/1 34/2/1 33/2/1
f 36/2/1 34/2/1 35/2/1
f 37/10/1 36/10/1 35/10/1
f 38/10/1 36/10/1 37/10/1
f 41/3/1 40/3/1 39/3/1
f 42/3/1 40/3/1 41/3/1
f 45/1/1 44/1/1 43/1/1
f 46/1/1 44/1/1 45/1/1
f 47/2/1 46/2/1 45/2/1
f 48/2/1 46/2/1 47/2/1
f 49/3/2 50/3/2 51/3/2
f 51/3/2 50/3/2 52/3/2
f 53/1/2 54/1/2 55/1/2
f 55/1/2 54/1/2 56/1/2
f 55/2/2 56/2/2 57/2/2
f 57/2/2 56/2/2 58/2/2
f 59/3/2 60/3/2 61/3/2
f 61/3/2 60/3/2 62/3/2
f 63/2/2 64/2/2 65/2/2
f 65/2/2 64/2/2 66/2/2
f 65/10/2 66/10/2 67/10/2
f 67/10/2 66/10/2 68/10/2
f 69/10/2 70/10/2 71/10/2
f 71/10/2 70/10/2 72/10/2
f 73/9/2 74/9/2 75/9/2
f 75/9/2 74/9/2 76/9/2
f 75/4/2 76/4/2 77/4/2
f 77/4/2 76/4/2 78/4/2
f 77/10/2 78/10/2 79/10/2
f 79/10/2 78/10/2 80/10/2
f 79/9/2 80/9/2 81/9/2
f 81/9/2 80/9/2 82/9/2
f 81/10/2 82/10/2 83/10/2
f 83/10/2 82/10/2 84/10/2
f 83/9/2 84/9/2 85/9/2
f 85/9/2 84/9/2 86/9/2
f 85/10/2 86/10/2 87/10/2
f 87/10/2 86/10/2 88/10/2
f 87/8/2 88/8/2 89/8/2
f 89/8/2 88/8/2 90/8/2
f 91/10/2 92/10/2 93/10/2
f 93/10/2 92/10/2 94/10/2
f 98/10/3 96/10/3 95/10/3
f 99/10/3 96/10/3 98/10/3
f 113/10/3 98/10/3 97/10/3
f 113/10/3 99/10/3 98/10/3
f 114/10/3 99/10/3 113/10/3
f 115/9/3 100/9/3 99/9/3
f 115/10/3 99/10/3 114/10/3
f 116/4/3 101/4/3 100/4/3
f 116/9/3 100/9/3 115/9/3
f 117/10/3 102/10/3 101/10/3
f 117/4/3 101/4/3 116/4/3
f 118/9/3 103/9/3 102/9/3
f 118/10/3 102/10/3 117/10/3
f 119/9/3 103/9/3 118/9/3
f 120/10/3 104/10/3 103/10/3
f 120/9/3 105/9/3 104/9/3
f 121/10/3 106/10/3 105/10/3
f 121/9/3 105/9/3 120/9/3
f 122/9/3 107/9/3 106/9/3
f 122/10/3 106/10/3 121/10/3
f 123/8/3 108/8/3 107/8/3
f 123/9/3 107/9/3 122/9/3
f 125/3/3 110/3/3 109/3/3
f 126/3/3 110/3/3 125/3/3
f 128/2/3 112/2/3 111/2/3
f 129/10/3 114/10/3 113/10/3
f 129/10/3 113/10/3 112/10/3
f 129/2/3 112/2/3 128/2/3
f 130/10/3 114/10/3 129/10/3
f 131/9/3 115/9/3 114/9/3
f 131/10/3 114/10/3 130/10/3
f 132/5/3 116/5/3 115/5/3
f 132/9/3 115/9/3 131/9/3
f 133/9/3 117/9/3 116/9/3
f 133/5/3 116/5/3 132/5/3
f 133/9/3 118/9/3 117/9/3
f 134/10/3 119/10/3 118/10/3
f 135/9/3 103/9/3 119/9/3
f 135/10/3 119/10/3 134/10/3
f 136/10/3 120/10/3 103/10/3
f 136/9/3 103/9/3 135/9/3
f 136/10/3 121/10/3 120/10/3
f 136/10/3 122/10/3 121/10/3
f 136/10/3 123/10/3 122/10/3
f 137/10/3 123/10/3 136/10/3
f 138/8/3 108/8/3 123/8/3
f 138/10/3 123/10/3 137/10/3
f 139/9/3 131/9/3 130/9/3
f 139/6/3 132/6/3 131/6/3
f 140/7/3 133/7/3 132/7/3
f 140/6/3 132/6/3 139/6/3
f 141/9/3 118/9/3 133/9/3
f 141/7/3 133/7/3 140/7/3
f 142/10/3 134/10/3 118/10/3
f 143/9/3 135/9/3 134/9/3
f 143/10/3 134/10/3 142/10/3
f 144/9/3 135/9/3 143/9/3
f 145/5/3 136/5/3 135/5/3
f 145/9/3 135/9/3 144/9/3
f 146/10/3 137/10/3 136/10/3
f 146/5/3 136/5/3 145/5/3
f 147/10/3 137/10/3 146/10/3
f 148/10/3 137/10/3 147/10/3
f 149/10/3 137/10/3 148/10/3
f 150/3/3 125/3/3 124/3/3
f 151/2/3 126/2/3 125/2/3
f 151/3/3 125/3/3 150/3/3
f 152/1/3 127/1/3 126/1/3
f 152/2/3 126/2/3 151/2/3
f 153/2/3 128/2/3 127/2/3
f 153/1/3 127/1/3 152/1/3
f 154/1/3 129/1/3 128/1/3
f 154/2/3 128/2/3 153/2/3
f 155/10/3 130/10/3 129/10/3
f 155/1/3 129/1/3 154/1/3
f 156/9/3 139/9/3 130/9/3
f 156/10/3 130/10/3 155/10/3
f 157/7/3 140/7/3 139/7/3
f 157/9/3 139/9/3 156/9/3
f 158/6/3 141/6/3 140/6/3
f 158/7/3 140/7/3 157/7/3
f 159/9/3 118/9/3 141/9/3
f 159/6/3 141/6/3 158/6/3
f 160/10/3 142/10/3 118/10/3
f 160/9/3 118/9/3 159/9/3
f 161/7/3 143/7/3 142/7/3
f 161/10/3 142/10/3 160/10/3
f 162/7/3 143/7/3 161/7/3
f 163/5/3 144/5/3 143/5/3
f 163/7/3 143/7/3 162/7/3
f 164/9/3 145/9/3 144/9/3
f 164/5/3 144/5/3 163/5/3
f 164/9/3 146/9/3 145/9/3
f 165/9/3 146/9/3 164/9/3
f 166/7/3 147/7/3 146/7/3
f 166/9/3 146/9/3 165/9/3
f 167/10/3 148/10/3 147/10/3
f 167/7/3 147/7/3 166/7/3
f 168/8/3 149/8/3 148/8/3
f 168/10/3 148/10/3 167/10/3
f 169/10/3 137/10/3 149/10/3
f 169/8/3 149/8/3 168/8/3
f 170/9/3 138/9/3 137/9/3
f 170/10/3 137/10/3 169/10/3
f 171/8/3 108/8/3 138/8/3
f 171/9/3 138/9/3 170/9/3
f 172/3/3 152/3/3 151/3/3
f 173/3/3 152/3/3 172/3/3
f 174/2/3 155/2/3 154/2/3
f 175/10/3 156/10/3 155/10/3
f 175/2/3 155/2/3 174/2/3
f 175/10/3 157/10/3 156/10/3
f 176/10/3 157/10/3 175/10/3
f 177/9/3 158/9/3 157/9/3
f 177/10/3 157/10/3 176/10/3
f 178/5/3 159/5/3 158/5/3
f 178/9/3 158/9/3 177/9/3
f 179/9/3 162/9/3 161/9/3
f 179/5/3 159/5/3 178/5/3
f 179/9/3 160/9/3 159/9/3
f 179/9/3 161/9/3 160/9/3
f 180/9/3 162/9/3 179/9/3
f 181/9/3 162/9/3 180/9/3
f 182/8/3 163/8/3 162/8/3
f 182/9/3 162/9/3 181/9/3
f 183/9/3 164/9/3 163/9/3
f 183/8/3 163/8/3 182/8/3
f 183/9/3 165/9/3 164/9/3
f 184/5/3 166/5/3 165/5/3
f 184/9/3 165/9/3 183/9/3
f 185/8/3 170/8/3 169/8/3
f 185/5/3 166/5/3 184/5/3
f 185/8/3 169/8/3 168/8/3
f 185/8/3 167/8/3 166/8/3
f 185/8/3 168/8/3 167/8/3
f 186/8/3 170/8/3 185/8/3
f 187/8/3 170/8/3 186/8/3
f 188/10/3 171/10/3 170/10/3
f 188/8/3 170/8/3 187/8/3
f 189/10/3 171/10/3 188/10/3
f 190/8/3 108/8/3 171/8/3
f 190/10/3 171/10/3 189/10/3
f 191/10/3 177/10/3 176/10/3
f 191/10/3 178/10/3 177/10/3
f 192/10/3 178/10/3 191/10/3
f 193/9/3 179/9/3 178/9/3
f 193/10/3 178/10/3 192/10/3
f 194/4/3 180/4/3 179/4/3
f 194/9/3 179/9/3 193/9/3
f 195/10/3 181/10/3 180/10/3
f 195/4/3 180/4/3 194/4/3
f 196/9/3 182/9/3 181/9/3
f 196/10/3 181/10/3 195/10/3
f 196/9/3 184/9/3 183/9/3
f 196/9/3 183/9/3 182/9/3
f 196/9/3 185/9/3 184/9/3
f 196/9/3 186/9/3 185/9/3
f 197/10/3 187/10/3 186/10/3
f 197/9/3 186/9/3 196/9/3
f 198/9/3 188/9/3 187/9/3
f 198/10/3 187/10/3 197/10/3
f 199/10/3 189/10/3 188/10/3
f 199/9/3 188/9/3 198/9/3
f 200/8/3 190/8/3 189/8/3
f 200/10/3 189/10/3 199/10/3
f 201/8/3 108/8/3 190/8/3
f 201/8/3 190/8/3 200/8/3
f 202/10/3 193/10/3 192/10/3
f 203/10/3 193/10/3 202/10/3
f 204/10/4 205/10/4 207/10/4
f 207/10/4 205/10/4 208/10/4
f 206/10/4 207/10/4 222/10/4
f 207/10/4 208/10/4 222/10/4
f 222/10/4 208/10/4 223/10/4
f 208/9/4 209/9/4 224/9/4
f 223/10/4 208/10/4 224/10/4
f 209/4/4 210/4/4 225/4/4
f 224/9/4 209/9/4 225/9/4
f 210/10/4 211/10/4 226/10/4
f 225/4/4 210/4/4 226/4/4
f 211/9/4 212/9/4 227/9/4
f 226/10/4 211/10/4 227/10/4
f 227/9/4 212/9/4 228/9/4
f 212/10/4 213/10/4 229/10/4
f 213/9/4 214/9/4 229/9/4
f 214/10/4 215/10/4 230/10/4
f 229/9/4 214/9/4 230/9/4
f 215/9/4 216/9/4 231/9/4
f 230/10/4 215/10/4 231/10/4
f 216/8/4 217/8/4 232/8/4
f 231/9/4 216/9/4 232/9/4
f 218/3/4 219/3/4 234/3/4
f 234/3/4 219/3/4 235/3/4
f 220/2/4 221/2/4 237/2/4
f 222/10/4 223/10/4 238/10/4
f 221/10/4 222/10/4 238/10/4
f 237/2/4 221/2/4 238/2/4
f 238/10/4 223/10/4 239/10/4
f 223/9/4 224/9/4 240/9/4
f 239/10/4 223/10/4 240/10/4
f 224/5/4 225/5/4 241/5/4
f 240/9/4 224/9/4 241/9/4
f 225/9/4 226/9/4 242/9/4
f 241/5/4 225/5/4 242/5/4
f 226/9/4 227/9/4 242/9/4
f 227/10/4 228/10/4 243/10/4
f 228/9/4 212/9/4 244/9/4
f 243/10/4 228/10/4 244/10/4
f 212/10/4 229/10/4 245/10/4
f 244/9/4 212/9/4 245/9/4
f 229/10/4 230/10/4 245/10/4
f 230/10/4 231/10/4 245/10/4
f 231/10/4 232/10/4 245/10/4
f 245/10/4 232/10/4 246/10/4
f 232/8/4 217/8/4 247/8/4
f 246/10/4 232/10/4 247/10/4
f 239/9/4 240/9/4 248/9/4
f 240/6/4 241/6/4 248/6/4
f 241/7/4 242/7/4 249/7/4
f 248/6/4 241/6/4 249/6/4
f 242/9/4 227/9/4 250/9/4
f 249/7/4 242/7/4 250/7/4
f 227/10/4 243/10/4 251/10/4
f 243/9/4 244/9/4 252/9/4
f 251/10/4 243/10/4 252/10/4
f 252/9/4 244/9/4 253/9/4
f 244/5/4 245/5/4 254/5/4
f 253/9/4 244/9/4 254/9/4
f 245/10/4 246/10/4 255/10/4
f 254/5/4 245/5/4 255/5/4
f 255/10/4 246/10/4 256/10/4
f 256/10/4 246/10/4 257/10/4
f 257/10/4 246/10/4 258/10/4
f 233/3/4 234/3/4 259/3/4
f 234/2/4 235/2/4 260/2/4
f 259/3/4 234/3/4 260/3/4
f 235/1/4 236/1/4 261/1/4
f 260/2/4 235/2/4 261/2/4
f 236/2/4 237/2/4 262/2/4
f 261/1/4 236/1/4 262/1/4
f 237/1/4 238/1/4 263/1/4
f 262/2/4 237/2/4 263/2/4
f 238/10/4 239/10/4 264/10/4
f 263/1/4 238/1/4 264/1/4
f 239/9/4 248/9/4 265/9/4
f 264/10/4 239/10/4 265/10/4
f 248/7/4 249/7/4 266/7/4
f 265/9/4 248/9/4 266/9/4
f 249/6/4 250/6/4 267/6/4
f 266/7/4 249/7/4 267/7/4
f 250/9/4 227/9/4 268/9/4
f 267/6/4 250/6/4 268/6/4
f 227/10/4 251/10/4 269/10/4
f 268/9/4 227/9/4 269/9/4
f 251/7/4 252/7/4 270/7/4
f 269/10/4 251/10/4 270/10/4
f 270/7/4 252/7/4 271/7/4
f 252/5/4 253/5/4 272/5/4
f 271/7/4 252/7/4 272/7/4
f 253/9/4 254/9/4 273/9/4
f 272/5/4 253/5/4 273/5/4
f 254/9/4 255/9/4 273/9/4
f 273/9/4 255/9/4 274/9/4
f 255/7/4 256/7/4 275/7/4
f 274/9/4 255/9/4 275/9/4
f 256/10/4 257/10/4 276/10/4
f 275/7/4 256/7/4 276/7/4
f 257/8/4 258/8/4 277/8/4
f 276/10/4 257/10/4 277/10/4
f 258/10/4 246/10/4 278/10/4
f 277/8/4 258/8/4 278/8/4
f 246/9/4 247/9/4 279/9/4
f 278/10/4 246/10/4 279/10/4
f 247/8/4 217/8/4 280/8/4
f 279/9/4 247/9/4 280/9/4
f 260/3/4 261/3/4 281/3/4
f 281/3/4 261/3/4 282/3/4
f 263/2/4 264/2/4 283/2/4
f 264/10/4 265/10/4 284/10/4
f 283/2/4 264/2/4 284/2/4
f 265/10/4 266/10/4 284/10/4
f 284/10/4 266/10/4 285/10/4
f 266/9/4 267/9/4 286/9/4
f 285/10/4 266/10/4 286/10/4
f 267/5/4 268/5/4 287/5/4
f 286/9/4 267/9/4 287/9/4
f 270/9/4 271/9/4 288/9/4
f 287/5/4 268/5/4 288/5/4
f 268/9/4 269/9/4 288/9/4
f 269/9/4 270/9/4 288/9/4
f 288/9/4 271/9/4 289/9/4
f 289/9/4 271/9/4 290/9/4
f 271/8/4 272/8/4 291/8/4
f 290/9/4 271/9/4 291/9/4
f 272/9/4 273/9/4 292/9/4
f 291/8/4 272/8/4 292/8/4
f 273/9/4 274/9/4 292/9/4
f 274/5/4 275/5/4 293/5/4
f 292/9/4 274/9/4 293/9/4
f 278/8/4 279/8/4 294/8/4
f 293/5/4 275/5/4 294/5/4
f 277/8/4 278/8/4 294/8/4
f 275/8/4 276/8/4 294/8/4
f 276/8/4 277/8/4 294/8/4
f 294/8/4 279/8/4 295/8/4
f 295/8/4 279/8/4 296/8/4
f 279/10/4 280/10/4 297/10/4
f 296/8/4 279/8/4 297/8/4
f 297/10/4 280/10/4 298/10/4
f 280/8/4 217/8/4 299/8/4
f 298/10/4 280/10/4 299/10/4
f 285/10/4 286/10/4 300/10/4
f 286/10/4 287/10/4 300/10/4
f 300/10/4 287/10/4 301/10/4
f 287/9/4 288/9/4 302/9/4
f 301/10/4 287/10/4 302/10/4
f 288/4/4 289/4/4 303/4/4
f 302/9/4 288/9/4 303/9/4
f 289/10/4 290/10/4 304/10/4
f 303/4/4 289/4/4 304/4/4
f 290/9/4 291/9/4 305/9/4
f 304/10/4 290/10/4 305/10/4
f 292/9/4 293/9/4 305/9/4
f 291/9/4 292/9/4 305/9/4
f 293/9/4 294/9/4 305/9/4
f 294/9/4 295/9/4 305/9/4
f 295/10/4 296/10/4 306/10/4
f 305/9/4 295/9/4 306/9/4
f 296/9/4 297/9/4 307/9/4
f 306/10/4 296/10/4 307/10/4
f 297/10/4 298/10/4 308/10/4
f 307/9/4 297/9/4 308/9/4
f 298/8/4 299/8/4 309/8/4
f 308/10/4 298/10/4 309/10/4
f 299/8/4 217/8/4 310/8/4
f 309/8/4 299/8/4 310/8/4
f 301/10/4 302/10/4 311/10/4
f 311/10/4 302/10/4 312/10/4
f 315/3/5 314/3/5 313/3/5
f 316/3/5 314/3/5 315/3/5
f 321/3/5 318/3/5 317/3/5
f 322/3/5 318/3/5 321/3/5
f 323/3/5 320/3/5 319/3/5
f 324/3/5 320/3/5 323/3/5
f 329/2/5 326/2/5 325/2/5
f 330/2/5 326/2/5 329/2/5
f 331/2/5 328/2/5 327/2/5
f 332/2/5 328/2/5 331/2/5
f 337/10/5 334/10/5 333/10/5
f 338/10/5 334/10/5 337/10/5
f 339/10/5 336/10/5 335/10/5
f 340/10/5 336/10/5 339/10/5
f 345/10/5 342/10/5 341/10/5
f 346/10/5 342/10/5 345/10/5
f 347/10/5 344/10/5 343/10/5
f 348/10/5 344/10/5 347/10/5
f 349/3/6 350/3/6 353/3/6
f 353/3/6 350/3/6 354/3/6
f 351/3/6 352/3/6 355/3/6
f 355/3/6 352/3/6 356/3/6
f 357/10/6 358/10/6 361/10/6
f 361/10/6 358/10/6 362/10/6
f 359/10/6 360/10/6 363/10/6
f 363/10/6 360/10/6 364/10/6
f 365/8/6 366/8/6 367/8/6
f 367/8/6 366/8/6 368/8/6
