# MagicaVoxel @ Ephtracy

# group
o 

# material
mtllib ShotGun.mtl
usemtl palette

# normals
vn -1 0 0
vn 1 0 0
vn 0 0 1
vn 0 0 -1
vn 0 -1 0
vn 0 1 0

# texcoords
vt 0.533203 0.5
vt 0.537109 0.5
vt 0.541016 0.5
vt 0.544922 0.5
vt 0.970703 0.5
vt 0.974609 0.5
vt 0.978516 0.5
vt 0.982422 0.5
vt 0.986328 0.5
vt 0.990234 0.5
vt 0.994141 0.5

# verts
v -0.2 0.9 0.8
v -0.2 0.9 0.7
v -0.2 0.9 0.6
v -0.2 0.9 0.5
v -0.2 0.9 0.4
v -0.2 0.9 0.3
v -0.2 0.9 -1.3
v -0.2 0.9 -2
v -0.2 1 0.7
v -0.2 1 0.6
v -0.2 1 0.5
v -0.2 1 0.4
v -0.2 1 -0.3
v -0.2 1 -1.1
v -0.2 1 -1.4
v -0.2 1 -1.5
v -0.2 1 -1.6
v -0.2 1 -1.9
v -0.2 1.1 1.1
v -0.2 1.1 0.8
v -0.2 1.1 0.7
v -0.2 1.1 0.6
v -0.2 1.1 0.5
v -0.2 1.1 0.4
v -0.2 1.1 -0.4
v -0.2 1.1 -0.7
v -0.2 1.1 -0.8
v -0.2 1.1 -1
v -0.2 1.1 -1.2
v -0.2 1.1 -1.3
v -0.2 1.2 1.3
v -0.2 1.2 1.2
v -0.2 1.2 1.1
v -0.2 1.2 1
v -0.2 1.2 0.9
v -0.2 1.2 0.8
v -0.2 1.2 0.7
v -0.2 1.2 0.6
v -0.2 1.2 0.5
v -0.2 1.2 0.4
v -0.2 1.2 0.3
v -0.2 1.2 -0.4
v -0.2 1.2 -0.5
v -0.2 1.2 -0.6
v -0.2 1.2 -0.7
v -0.2 1.2 -0.8
v -0.2 1.2 -0.9
v -0.2 1.2 -1.1
v -0.2 1.2 -1.2
v -0.2 1.3 1.2
v -0.2 1.3 1
v -0.2 1.3 0.9
v -0.2 1.3 0.8
v -0.2 1.3 -0.6
v -0.2 1.3 -0.9
v -0.2 1.3 -1
v -0.2 1.3 -1.1
v -0.2 1.3 -1.3
v -0.2 1.3 -1.4
v -0.2 1.3 -1.5
v -0.2 1.3 -1.6
v -0.2 1.3 -1.9
v -0.2 1.3 -2
v -0.2 1.4 1.3
v -0.2 1.4 1.2
v -0.2 1.4 -0.3
v -0.2 1.4 -0.5
v -0.2 1.4 -0.9
v -0.2 1.4 -1.1
v -0.2 1.4 -1.3
v -0.1 0.8 -0.6
v -0.1 0.8 -0.8
v -0.1 0.9 -0.5
v -0.1 0.9 -0.6
v -0.1 0.9 -0.8
v -0.1 0.9 -0.9
v -0.1 1 1.1
v -0.1 1 0.8
v -0.1 1 0.3
v -0.1 1 0.1
v -0.1 1 1.19209e-07
v -0.1 1 -0.3
v -0.1 1 -0.5
v -0.1 1 -0.6
v -0.1 1 -0.8
v -0.1 1 -0.9
v -0.1 1.1 1.3
v -0.1 1.1 1.1
v -0.1 1.1 0.8
v -0.1 1.1 0.2
v -0.1 1.1 0.1
v -0.1 1.1 1.19209e-07
v -0.1 1.1 -0.0999999
v -0.1 1.2 1.3
v -0.1 1.2 1.2
v -0.1 1.2 1.1
v -0.1 1.2 1
v -0.1 1.2 0.9
v -0.1 1.2 0.8
v -0.1 1.2 0.7
v -0.1 1.2 0.6
v -0.1 1.2 0.5
v -0.1 1.2 0.4
v -0.1 1.2 0.3
v -0.1 1.2 0.2
v -0.1 1.2 0.1
v -0.1 1.3 1.2
v -0.1 1.3 1.1
v -0.1 1.3 1
v -0.1 1.3 0.9
v -0.1 1.3 0.8
v -0.1 1.3 0.2
v -0.1 1.3 0.1
v -0.1 1.3 -0.0999999
v -0.1 1.3 -0.2
v -0.1 1.4 1.3
v -0.1 1.4 1.2
v -0.1 1.4 1.1
v -0.1 1.4 1
v -0.1 1.4 0.9
v -0.1 1.4 0.8
v -0.1 1.4 0.3
v -0.1 1.4 0.2
v -0.1 1.4 -0.2
v -0.1 1.4 -0.3
v -0.1 1.4 -0.5
v -0.1 1.4 -0.9
v -0.1 1.4 -1.1
v -0.1 1.5 1.3
v -0.1 1.5 1.2
v -0.1 1.5 -0.3
v -0.1 1.5 -1
v -0.1 1.5 -1.1
v -0.1 1.5 -1.2
v -0.1 1.6 -1
v -0.1 1.6 -1.2
v 0 1.5 -1
v 0 1.5 -1.1
v 0 1.5 -1.2
v 0 1.6 -1
v 0 1.6 -1.2
v 0.1 0.8 -0.6
v 0.1 0.8 -0.8
v 0.1 0.9 -0.5
v 0.1 0.9 -0.6
v 0.1 0.9 -0.8
v 0.1 0.9 -0.9
v 0.1 0.9 -1.3
v 0.1 0.9 -2
v 0.1 1 1.1
v 0.1 1 0.8
v 0.1 1 0.3
v 0.1 1 0.1
v 0.1 1 1.19209e-07
v 0.1 1 -0.3
v 0.1 1 -0.5
v 0.1 1 -0.6
v 0.1 1 -0.8
v 0.1 1 -0.9
v 0.1 1 -1.4
v 0.1 1 -1.5
v 0.1 1 -1.6
v 0.1 1 -1.9
v 0.1 1.1 1.3
v 0.1 1.1 1.1
v 0.1 1.1 0.8
v 0.1 1.1 0.2
v 0.1 1.1 0.1
v 0.1 1.1 -1.2
v 0.1 1.1 -1.3
v 0.1 1.2 1.3
v 0.1 1.2 1.2
v 0.1 1.2 1.1
v 0.1 1.2 1
v 0.1 1.2 0.9
v 0.1 1.2 0.8
v 0.1 1.2 0.7
v 0.1 1.2 0.6
v 0.1 1.2 0.5
v 0.1 1.2 0.4
v 0.1 1.2 0.3
v 0.1 1.2 0.2
v 0.1 1.2 0.1
v 0.1 1.2 1.19209e-07
v 0.1 1.2 -0.0999999
v 0.1 1.2 -1.1
v 0.1 1.2 -1.2
v 0.1 1.3 1.2
v 0.1 1.3 1.1
v 0.1 1.3 1
v 0.1 1.3 0.9
v 0.1 1.3 0.8
v 0.1 1.3 0.2
v 0.1 1.3 0.1
v 0.1 1.3 -0.0999999
v 0.1 1.3 -0.2
v 0.1 1.3 -1.1
v 0.1 1.3 -1.3
v 0.1 1.3 -1.4
v 0.1 1.3 -1.5
v 0.1 1.3 -1.6
v 0.1 1.3 -1.9
v 0.1 1.3 -2
v 0.1 1.4 1.3
v 0.1 1.4 1.2
v 0.1 1.4 1.1
v 0.1 1.4 1
v 0.1 1.4 0.9
v 0.1 1.4 0.8
v 0.1 1.4 0.3
v 0.1 1.4 0.2
v 0.1 1.4 -0.2
v 0.1 1.4 -0.3
v 0.1 1.4 -0.5
v 0.1 1.4 -0.6
v 0.1 1.4 -0.9
v 0.1 1.4 -1.1
v 0.1 1.4 -1.3
v 0.1 1.5 1.3
v 0.1 1.5 1.2
v 0.1 1.5 -0.3
v 0.1 1.5 -1.1
v 0.2 0.9 0.8
v 0.2 0.9 0.7
v 0.2 0.9 0.6
v 0.2 0.9 0.5
v 0.2 0.9 0.4
v 0.2 0.9 0.3
v 0.2 1 0.7
v 0.2 1 0.6
v 0.2 1 0.5
v 0.2 1 0.4
v 0.2 1 -0.3
v 0.2 1 -1.1
v 0.2 1.1 1.1
v 0.2 1.1 0.8
v 0.2 1.1 0.7
v 0.2 1.1 0.6
v 0.2 1.1 0.5
v 0.2 1.1 0.4
v 0.2 1.1 -0.4
v 0.2 1.1 -0.8
v 0.2 1.1 -1
v 0.2 1.2 1.3
v 0.2 1.2 1.2
v 0.2 1.2 1.1
v 0.2 1.2 1
v 0.2 1.2 0.9
v 0.2 1.2 0.8
v 0.2 1.2 0.7
v 0.2 1.2 0.6
v 0.2 1.2 0.5
v 0.2 1.2 0.4
v 0.2 1.2 0.3
v 0.2 1.3 1.2
v 0.2 1.3 1
v 0.2 1.3 0.9
v 0.2 1.3 0.8
v 0.2 1.3 -0.4
v 0.2 1.3 -0.5
v 0.2 1.3 -0.6
v 0.2 1.3 -0.8
v 0.2 1.3 -0.9
v 0.2 1.3 -1
v 0.2 1.4 1.3
v 0.2 1.4 1.2
v 0.2 1.4 -0.3
v 0.2 1.4 -0.5
v 0.2 1.4 -0.6
v 0.2 1.4 -0.9
v 0.2 1.4 -1.1
v -0.2 1.2 1.3
v -0.2 1.4 1.3
v -0.1 1.1 1.3
v -0.1 1.2 1.3
v -0.1 1.4 1.3
v -0.1 1.5 1.3
v 0.1 1.1 1.3
v 0.1 1.2 1.3
v 0.1 1.4 1.3
v 0.1 1.5 1.3
v 0.2 1.2 1.3
v 0.2 1.4 1.3
v -0.2 1.1 1.1
v -0.2 1.2 1.1
v -0.1 1 1.1
v -0.1 1.1 1.1
v -0.1 1.2 1.1
v 0.1 1 1.1
v 0.1 1.1 1.1
v 0.1 1.2 1.1
v 0.2 1.1 1.1
v 0.2 1.2 1.1
v -0.2 1.2 0.9
v -0.2 1.3 0.9
v -0.1 1.2 0.9
v -0.1 1.3 0.9
v 0.1 1.2 0.9
v 0.1 1.3 0.9
v 0.2 1.2 0.9
v 0.2 1.3 0.9
v -0.2 0.9 0.8
v -0.2 1.1 0.8
v -0.1 1 0.8
v -0.1 1.1 0.8
v 0.1 1 0.8
v 0.1 1.1 0.8
v 0.2 0.9 0.8
v 0.2 1.1 0.8
v -0.2 1 -0.3
v -0.2 1.4 -0.3
v -0.1 1 -0.3
v -0.1 1.4 -0.3
v -0.1 1.5 -0.3
v 0.1 1 -0.3
v 0.1 1.4 -0.3
v 0.1 1.5 -0.3
v 0.2 1 -0.3
v 0.2 1.4 -0.3
v -0.1 0.9 -0.5
v -0.1 1 -0.5
v 0.1 0.9 -0.5
v 0.1 1 -0.5
v -0.1 0.8 -0.6
v -0.1 0.9 -0.6
v 0.1 0.8 -0.6
v 0.1 0.9 -0.6
v -0.1 0.9 -0.8
v -0.1 1 -0.8
v 0.1 0.9 -0.8
v 0.1 1 -0.8
v -0.1 1.5 -1
v -0.1 1.6 -1
v 0 1.5 -1
v 0 1.6 -1
v -0.2 1.1 -1.2
v -0.2 1.2 -1.2
v 0.1 1.1 -1.2
v 0.1 1.2 -1.2
v -0.2 0.9 -1.3
v -0.2 1.1 -1.3
v -0.1 0.9 -1.3
v -0.1 1.1 -1.3
v 0 0.9 -1.3
v 0 1.1 -1.3
v 0.1 0.9 -1.3
v 0.1 1.1 -1.3
v -0.2 1.3 1.2
v -0.2 1.4 1.2
v -0.1 1.3 1.2
v -0.1 1.4 1.2
v -0.1 1.5 1.2
v 0.1 1.3 1.2
v 0.1 1.4 1.2
v 0.1 1.5 1.2
v 0.2 1.3 1.2
v 0.2 1.4 1.2
v -0.2 1.2 1
v -0.2 1.3 1
v -0.1 1.2 1
v -0.1 1.3 1
v 0.1 1.2 1
v 0.1 1.3 1
v 0.2 1.2 1
v 0.2 1.3 1
v -0.2 1.2 0.8
v -0.2 1.3 0.8
v -0.1 1.2 0.8
v -0.1 1.3 0.8
v 0.1 1.2 0.8
v 0.1 1.3 0.8
v 0.2 1.2 0.8
v 0.2 1.3 0.8
v -0.2 0.9 0.3
v -0.2 1.2 0.3
v -0.1 1 0.3
v -0.1 1.2 0.3
v 0.1 1 0.3
v 0.1 1.2 0.3
v 0.2 0.9 0.3
v 0.2 1.2 0.3
v -0.1 0.9 -0.6
v -0.1 1 -0.6
v 0.1 0.9 -0.6
v 0.1 1 -0.6
v -0.1 0.8 -0.8
v -0.1 0.9 -0.8
v 0.1 0.8 -0.8
v 0.1 0.9 -0.8
v -0.1 0.9 -0.9
v -0.1 1 -0.9
v 0.1 0.9 -0.9
v 0.1 1 -0.9
v -0.2 1 -1.1
v -0.2 1.2 -1.1
v -0.1 1 -1.1
v -0.1 1.2 -1.1
v -0.1 1.4 -1.1
v -0.1 1.5 -1.1
v 0 1.4 -1.1
v 0 1.5 -1.1
v 0.1 1 -1.1
v 0.1 1.2 -1.1
v 0.1 1.3 -1.1
v 0.1 1.4 -1.1
v 0.1 1.5 -1.1
v 0.2 1 -1.1
v 0.2 1.4 -1.1
v -0.1 1.5 -1.2
v -0.1 1.6 -1.2
v 0 1.5 -1.2
v 0 1.6 -1.2
v -0.2 1.3 -1.3
v -0.2 1.4 -1.3
v -0.1 1.3 -1.3
v -0.1 1.4 -1.3
v 0 1.3 -1.3
v 0 1.4 -1.3
v 0.1 1.3 -1.3
v 0.1 1.4 -1.3
v -0.2 0.9 -2
v -0.2 1.3 -2
v -0.1 1 -2
v -0.1 1.2 -2
v 0 1 -2
v 0 1.2 -2
v 0.1 0.9 -2
v 0.1 1.3 -2
v -0.1 0.8 -0.6
v 0.1 0.8 -0.6
v -0.1 0.8 -0.8
v 0.1 0.8 -0.8
v -0.2 0.9 0.8
v 0.2 0.9 0.8
v -0.2 0.9 0.7
v 0.2 0.9 0.7
v -0.2 0.9 0.6
v 0.2 0.9 0.6
v -0.2 0.9 0.5
v 0.2 0.9 0.5
v -0.2 0.9 0.4
v 0.2 0.9 0.4
v -0.2 0.9 0.3
v 0.2 0.9 0.3
v -0.1 0.9 -0.5
v 0.1 0.9 -0.5
v -0.1 0.9 -0.6
v 0.1 0.9 -0.6
v -0.1 0.9 -0.8
v 0.1 0.9 -0.8
v -0.1 0.9 -0.9
v 0.1 0.9 -0.9
v -0.2 0.9 -1.3
v -0.1 0.9 -1.3
v 0 0.9 -1.3
v 0.1 0.9 -1.3
v -0.1 0.9 -1.9
v 0 0.9 -1.9
v -0.2 0.9 -2
v 0.1 0.9 -2
v -0.1 1 1.1
v 0.1 1 1.1
v -0.1 1 0.8
v 0.1 1 0.8
v -0.1 1 0.3
v 0.1 1 0.3
v -0.1 1 0.1
v 0.1 1 0.1
v -0.1 1 1.19209e-07
v 0.1 1 1.19209e-07
v -0.2 1 -0.3
v -0.1 1 -0.3
v 0.1 1 -0.3
v 0.2 1 -0.3
v -0.1 1 -0.5
v 0.1 1 -0.5
v -0.1 1 -0.6
v 0.1 1 -0.6
v -0.1 1 -0.8
v 0.1 1 -0.8
v -0.1 1 -0.9
v 0.1 1 -0.9
v -0.2 1 -1.1
v -0.1 1 -1.1
v 0.1 1 -1.1
v 0.2 1 -1.1
v -0.1 1.1 1.3
v 0.1 1.1 1.3
v -0.2 1.1 1.1
v -0.1 1.1 1.1
v 0.1 1.1 1.1
v 0.2 1.1 1.1
v -0.2 1.1 0.8
v -0.1 1.1 0.8
v 0.1 1.1 0.8
v 0.2 1.1 0.8
v -0.2 1.1 -1.2
v 0.1 1.1 -1.2
v -0.2 1.1 -1.3
v -0.1 1.1 -1.3
v 0 1.1 -1.3
v 0.1 1.1 -1.3
v -0.2 1.2 1.3
v -0.1 1.2 1.3
v 0.1 1.2 1.3
v 0.2 1.2 1.3
v -0.2 1.2 1.2
v -0.1 1.2 1.2
v 0.1 1.2 1.2
v 0.2 1.2 1.2
v -0.2 1.2 1.1
v -0.1 1.2 1.1
v 0.1 1.2 1.1
v 0.2 1.2 1.1
v -0.2 1.2 -1.1
v -0.1 1.2 -1.1
v 0.1 1.2 -1.1
v -0.2 1.2 -1.2
v 0.1 1.2 -1.2
v -0.1 1.5 -1.1
v 0 1.5 -1.1
v -0.1 1.5 -1.2
v 0 1.5 -1.2
v -0.1 0.9 -0.6
v 0.1 0.9 -0.6
v -0.1 0.9 -0.8
v 0.1 0.9 -0.8
v -0.2 1.2 1
v -0.1 1.2 1
v 0.1 1.2 1
v 0.2 1.2 1
v -0.2 1.2 0.9
v -0.1 1.2 0.9
v 0.1 1.2 0.9
v 0.2 1.2 0.9
v -0.2 1.2 0.8
v -0.1 1.2 0.8
v 0.1 1.2 0.8
v 0.2 1.2 0.8
v -0.2 1.2 0.7
v -0.1 1.2 0.7
v 0.1 1.2 0.7
v 0.2 1.2 0.7
v -0.2 1.2 0.6
v -0.1 1.2 0.6
v 0.1 1.2 0.6
v 0.2 1.2 0.6
v -0.2 1.2 0.5
v -0.1 1.2 0.5
v 0.1 1.2 0.5
v 0.2 1.2 0.5
v -0.2 1.2 0.4
v -0.1 1.2 0.4
v 0.1 1.2 0.4
v 0.2 1.2 0.4
v -0.2 1.2 0.3
v -0.1 1.2 0.3
v 0.1 1.2 0.3
v 0.2 1.2 0.3
v -0.2 1.3 1.2
v -0.1 1.3 1.2
v 0.1 1.3 1.2
v 0.2 1.3 1.2
v -0.1 1.3 1.1
v 0.1 1.3 1.1
v -0.2 1.3 1
v -0.1 1.3 1
v 0.1 1.3 1
v 0.2 1.3 1
v -0.2 1.3 0.9
v -0.1 1.3 0.9
v 0.1 1.3 0.9
v 0.2 1.3 0.9
v -0.2 1.3 0.8
v -0.1 1.3 0.8
v 0.1 1.3 0.8
v 0.2 1.3 0.8
v -0.2 1.3 -1.3
v -0.1 1.3 -1.3
v 0 1.3 -1.3
v 0.1 1.3 -1.3
v -0.2 1.3 -1.4
v 0.1 1.3 -1.4
v -0.2 1.3 -1.5
v -0.1 1.3 -1.5
v 0 1.3 -1.5
v 0.1 1.3 -1.5
v -0.2 1.3 -1.6
v -0.1 1.3 -1.6
v 0 1.3 -1.6
v 0.1 1.3 -1.6
v -0.2 1.3 -1.9
v 0.1 1.3 -1.9
v -0.2 1.3 -2
v 0.1 1.3 -2
v -0.2 1.4 1.3
v -0.1 1.4 1.3
v 0.1 1.4 1.3
v 0.2 1.4 1.3
v -0.2 1.4 1.2
v -0.1 1.4 1.2
v 0.1 1.4 1.2
v 0.2 1.4 1.2
v -0.1 1.4 1.1
v 0.1 1.4 1.1
v -0.1 1.4 1
v 0.1 1.4 1
v -0.1 1.4 0.9
v 0.1 1.4 0.9
v -0.1 1.4 0.8
v 0.1 1.4 0.8
v -0.1 1.4 0.3
v 0.1 1.4 0.3
v -0.1 1.4 0.2
v 0.1 1.4 0.2
v -0.1 1.4 -0.2
v 0.1 1.4 -0.2
v -0.2 1.4 -0.3
v -0.1 1.4 -0.3
v 0.1 1.4 -0.3
v 0.2 1.4 -0.3
v -0.2 1.4 -0.5
v -0.1 1.4 -0.5
v 0.1 1.4 -0.5
v 0.2 1.4 -0.5
v 0.1 1.4 -0.6
v 0.2 1.4 -0.6
v -0.2 1.4 -0.9
v -0.1 1.4 -0.9
v 0.1 1.4 -0.9
v 0.2 1.4 -0.9
v -0.2 1.4 -1.1
v -0.1 1.4 -1.1
v 0 1.4 -1.1
v 0.1 1.4 -1.1
v 0.2 1.4 -1.1
v -0.2 1.4 -1.3
v -0.1 1.4 -1.3
v 0 1.4 -1.3
v 0.1 1.4 -1.3
v -0.1 1.5 1.3
v 0.1 1.5 1.3
v -0.1 1.5 1.2
v 0.1 1.5 1.2
v -0.1 1.5 -0.3
v 0.1 1.5 -0.3
v -0.1 1.5 -1
v 0 1.5 -1
v 0 1.5 -1.1
v 0.1 1.5 -1.1
v -0.1 1.6 -1
v 0 1.6 -1
v -0.1 1.6 -1.2
v 0 1.6 -1.2

# faces
f 9/3/1 2/3/1 1/3/1
f 9/4/1 3/4/1 2/4/1
f 10/3/1 4/3/1 3/3/1
f 10/4/1 3/4/1 9/4/1
f 11/4/1 5/4/1 4/4/1
f 11/3/1 4/3/1 10/3/1
f 12/3/1 6/3/1 5/3/1
f 12/4/1 5/4/1 11/4/1
f 15/1/1 8/1/1 7/1/1
f 16/1/1 8/1/1 15/1/1
f 17/1/1 8/1/1 16/1/1
f 18/1/1 8/1/1 17/1/1
f 20/3/1 9/3/1 1/3/1
f 21/1/1 10/1/1 9/1/1
f 21/3/1 9/3/1 20/3/1
f 22/3/1 11/3/1 10/3/1
f 22/1/1 10/1/1 21/1/1
f 23/1/1 12/1/1 11/1/1
f 23/3/1 11/3/1 22/3/1
f 24/3/1 6/3/1 12/3/1
f 24/1/1 12/1/1 23/1/1
f 25/5/1 14/5/1 13/5/1
f 26/5/1 14/5/1 25/5/1
f 27/5/1 14/5/1 26/5/1
f 28/5/1 14/5/1 27/5/1
f 30/1/1 15/1/1 7/1/1
f 33/8/1 20/8/1 19/8/1
f 34/8/1 20/8/1 33/8/1
f 35/8/1 20/8/1 34/8/1
f 36/3/1 21/3/1 20/3/1
f 36/8/1 20/8/1 35/8/1
f 37/2/1 22/2/1 21/2/1
f 37/3/1 21/3/1 36/3/1
f 38/3/1 23/3/1 22/3/1
f 38/2/1 22/2/1 37/2/1
f 39/2/1 24/2/1 23/2/1
f 39/3/1 23/3/1 38/3/1
f 40/3/1 6/3/1 24/3/1
f 40/2/1 24/2/1 39/2/1
f 41/3/1 6/3/1 40/3/1
f 42/5/1 25/5/1 13/5/1
f 42/6/1 26/6/1 25/6/1
f 43/6/1 26/6/1 42/6/1
f 44/6/1 26/6/1 43/6/1
f 45/9/1 27/9/1 26/9/1
f 45/6/1 26/6/1 44/6/1
f 46/6/1 28/6/1 27/6/1
f 46/9/1 27/9/1 45/9/1
f 47/6/1 28/6/1 46/6/1
f 48/5/1 14/5/1 28/5/1
f 49/2/1 30/2/1 29/2/1
f 50/9/1 32/9/1 31/9/1
f 50/8/1 33/8/1 32/8/1
f 50/8/1 34/8/1 33/8/1
f 51/8/1 34/8/1 50/8/1
f 52/8/1 36/8/1 35/8/1
f 53/8/1 36/8/1 52/8/1
f 54/7/1 47/7/1 46/7/1
f 54/7/1 46/7/1 45/7/1
f 54/9/1 44/9/1 43/9/1
f 54/7/1 45/7/1 44/7/1
f 55/6/1 28/6/1 47/6/1
f 55/7/1 47/7/1 54/7/1
f 56/5/1 48/5/1 28/5/1
f 56/6/1 28/6/1 55/6/1
f 57/2/1 49/2/1 48/2/1
f 57/5/1 48/5/1 56/5/1
f 58/2/1 30/2/1 49/2/1
f 58/2/1 49/2/1 57/2/1
f 58/1/1 15/1/1 30/1/1
f 59/2/1 16/2/1 15/2/1
f 59/1/1 15/1/1 58/1/1
f 60/1/1 17/1/1 16/1/1
f 60/2/1 16/2/1 59/2/1
f 61/2/1 18/2/1 17/2/1
f 61/1/1 17/1/1 60/1/1
f 62/1/1 8/1/1 18/1/1
f 62/2/1 18/2/1 61/2/1
f 63/1/1 8/1/1 62/1/1
f 64/9/1 50/9/1 31/9/1
f 65/9/1 50/9/1 64/9/1
f 66/5/1 42/5/1 13/5/1
f 66/5/1 43/5/1 42/5/1
f 67/9/1 55/9/1 54/9/1
f 67/5/1 43/5/1 66/5/1
f 67/9/1 54/9/1 43/9/1
f 68/5/1 56/5/1 55/5/1
f 68/9/1 55/9/1 67/9/1
f 68/5/1 57/5/1 56/5/1
f 69/1/1 58/1/1 57/1/1
f 69/5/1 57/5/1 68/5/1
f 70/1/1 58/1/1 69/1/1
f 74/9/1 72/9/1 71/9/1
f 75/9/1 72/9/1 74/9/1
f 83/9/1 74/9/1 73/9/1
f 84/9/1 74/9/1 83/9/1
f 85/9/1 76/9/1 75/9/1
f 86/9/1 76/9/1 85/9/1
f 88/9/1 78/9/1 77/9/1
f 89/9/1 78/9/1 88/9/1
f 90/10/1 80/10/1 79/10/1
f 91/11/1 81/11/1 80/11/1
f 91/10/1 80/10/1 90/10/1
f 92/8/1 82/8/1 81/8/1
f 92/11/1 81/11/1 91/11/1
f 93/8/1 82/8/1 92/8/1
f 94/9/1 88/9/1 87/9/1
f 95/9/1 88/9/1 94/9/1
f 96/9/1 88/9/1 95/9/1
f 104/10/1 90/10/1 79/10/1
f 105/11/1 91/11/1 90/11/1
f 105/11/1 93/11/1 92/11/1
f 105/10/1 90/10/1 104/10/1
f 105/11/1 92/11/1 91/11/1
f 106/11/1 93/11/1 105/11/1
f 109/9/1 98/9/1 97/9/1
f 110/9/1 98/9/1 109/9/1
f 111/9/1 104/9/1 103/9/1
f 111/9/1 103/9/1 102/9/1
f 111/9/1 102/9/1 101/9/1
f 111/9/1 100/9/1 99/9/1
f 111/9/1 101/9/1 100/9/1
f 112/10/1 106/10/1 105/10/1
f 112/10/1 105/10/1 104/10/1
f 113/11/1 93/11/1 106/11/1
f 113/10/1 106/10/1 112/10/1
f 114/8/1 82/8/1 93/8/1
f 114/11/1 93/11/1 113/11/1
f 115/8/1 82/8/1 114/8/1
f 117/9/1 108/9/1 107/9/1
f 118/8/1 109/8/1 108/8/1
f 118/9/1 108/9/1 117/9/1
f 119/9/1 110/9/1 109/9/1
f 119/8/1 109/8/1 118/8/1
f 120/8/1 111/8/1 110/8/1
f 120/9/1 110/9/1 119/9/1
f 121/9/1 104/9/1 111/9/1
f 121/8/1 111/8/1 120/8/1
f 122/10/1 112/10/1 104/10/1
f 122/9/1 104/9/1 121/9/1
f 123/11/1 113/11/1 112/11/1
f 123/10/1 112/10/1 122/10/1
f 123/11/1 114/11/1 113/11/1
f 123/11/1 115/11/1 114/11/1
f 124/8/1 82/8/1 115/8/1
f 124/11/1 115/11/1 123/11/1
f 125/8/1 82/8/1 124/8/1
f 129/9/1 117/9/1 116/9/1
f 130/9/1 117/9/1 129/9/1
f 131/9/1 128/9/1 127/9/1
f 131/9/1 127/9/1 126/9/1
f 131/9/1 126/9/1 125/9/1
f 132/9/1 128/9/1 131/9/1
f 133/9/1 128/9/1 132/9/1
f 135/9/1 134/9/1 133/9/1
f 135/9/1 133/9/1 132/9/1
f 136/9/1 134/9/1 135/9/1
f 137/9/2 138/9/2 140/9/2
f 138/9/2 139/9/2 140/9/2
f 140/9/2 139/9/2 141/9/2
f 142/9/2 143/9/2 145/9/2
f 145/9/2 143/9/2 146/9/2
f 144/9/2 145/9/2 156/9/2
f 156/9/2 145/9/2 157/9/2
f 146/9/2 147/9/2 158/9/2
f 158/9/2 147/9/2 159/9/2
f 148/1/2 149/1/2 160/1/2
f 160/1/2 149/1/2 161/1/2
f 161/1/2 149/1/2 162/1/2
f 162/1/2 149/1/2 163/1/2
f 150/9/2 151/9/2 165/9/2
f 165/9/2 151/9/2 166/9/2
f 152/10/2 153/10/2 167/10/2
f 153/11/2 154/11/2 168/11/2
f 167/10/2 153/10/2 168/10/2
f 148/1/2 160/1/2 170/1/2
f 164/9/2 165/9/2 171/9/2
f 171/9/2 165/9/2 172/9/2
f 172/9/2 165/9/2 173/9/2
f 152/10/2 167/10/2 181/10/2
f 167/11/2 168/11/2 182/11/2
f 181/10/2 167/10/2 182/10/2
f 168/11/2 154/11/2 183/11/2
f 182/11/2 168/11/2 183/11/2
f 154/8/2 155/8/2 184/8/2
f 183/11/2 154/11/2 184/11/2
f 184/8/2 155/8/2 185/8/2
f 169/2/2 170/2/2 187/2/2
f 174/9/2 175/9/2 190/9/2
f 190/9/2 175/9/2 191/9/2
f 179/9/2 180/9/2 192/9/2
f 180/9/2 181/9/2 192/9/2
f 176/9/2 177/9/2 192/9/2
f 177/9/2 178/9/2 192/9/2
f 178/9/2 179/9/2 192/9/2
f 182/10/2 183/10/2 193/10/2
f 181/10/2 182/10/2 193/10/2
f 184/11/2 185/11/2 194/11/2
f 193/10/2 183/10/2 194/10/2
f 183/11/2 184/11/2 194/11/2
f 185/8/2 155/8/2 195/8/2
f 194/11/2 185/11/2 195/11/2
f 195/8/2 155/8/2 196/8/2
f 186/2/2 187/2/2 197/2/2
f 170/1/2 160/1/2 198/1/2
f 197/2/2 187/2/2 198/2/2
f 187/2/2 170/2/2 198/2/2
f 160/2/2 161/2/2 199/2/2
f 198/1/2 160/1/2 199/1/2
f 161/1/2 162/1/2 200/1/2
f 199/2/2 161/2/2 200/2/2
f 162/2/2 163/2/2 201/2/2
f 200/1/2 162/1/2 201/1/2
f 163/1/2 149/1/2 202/1/2
f 201/2/2 163/2/2 202/2/2
f 202/1/2 149/1/2 203/1/2
f 188/9/2 189/9/2 205/9/2
f 189/8/2 190/8/2 206/8/2
f 205/9/2 189/9/2 206/9/2
f 190/9/2 191/9/2 207/9/2
f 206/8/2 190/8/2 207/8/2
f 191/8/2 192/8/2 208/8/2
f 207/9/2 191/9/2 208/9/2
f 192/9/2 181/9/2 209/9/2
f 208/8/2 192/8/2 209/8/2
f 181/10/2 193/10/2 210/10/2
f 209/9/2 181/9/2 210/9/2
f 194/11/2 195/11/2 211/11/2
f 210/10/2 193/10/2 211/10/2
f 193/11/2 194/11/2 211/11/2
f 195/11/2 196/11/2 211/11/2
f 196/8/2 155/8/2 212/8/2
f 211/11/2 196/11/2 212/11/2
f 212/8/2 155/8/2 213/8/2
f 197/1/2 198/1/2 217/1/2
f 217/1/2 198/1/2 218/1/2
f 204/9/2 205/9/2 219/9/2
f 219/9/2 205/9/2 220/9/2
f 216/9/2 217/9/2 221/9/2
f 214/9/2 215/9/2 221/9/2
f 215/9/2 216/9/2 221/9/2
f 213/9/2 214/9/2 221/9/2
f 221/9/2 217/9/2 222/9/2
f 223/3/2 224/3/2 229/3/2
f 224/4/2 225/4/2 229/4/2
f 225/3/2 226/3/2 230/3/2
f 229/4/2 225/4/2 230/4/2
f 226/4/2 227/4/2 231/4/2
f 230/3/2 226/3/2 231/3/2
f 227/3/2 228/3/2 232/3/2
f 231/4/2 227/4/2 232/4/2
f 223/3/2 229/3/2 236/3/2
f 229/1/2 230/1/2 237/1/2
f 236/3/2 229/3/2 237/3/2
f 230/3/2 231/3/2 238/3/2
f 237/1/2 230/1/2 238/1/2
f 231/1/2 232/1/2 239/1/2
f 238/3/2 231/3/2 239/3/2
f 232/3/2 228/3/2 240/3/2
f 239/1/2 232/1/2 240/1/2
f 233/5/2 234/5/2 241/5/2
f 241/5/2 234/5/2 242/5/2
f 242/5/2 234/5/2 243/5/2
f 235/8/2 236/8/2 246/8/2
f 246/8/2 236/8/2 247/8/2
f 247/8/2 236/8/2 248/8/2
f 236/3/2 237/3/2 249/3/2
f 248/8/2 236/8/2 249/8/2
f 237/2/2 238/2/2 250/2/2
f 249/3/2 237/3/2 250/3/2
f 238/3/2 239/3/2 251/3/2
f 250/2/2 238/2/2 251/2/2
f 239/2/2 240/2/2 252/2/2
f 251/3/2 239/3/2 252/3/2
f 240/3/2 228/3/2 253/3/2
f 252/2/2 240/2/2 253/2/2
f 253/3/2 228/3/2 254/3/2
f 244/9/2 245/9/2 255/9/2
f 246/8/2 247/8/2 255/8/2
f 245/8/2 246/8/2 255/8/2
f 255/8/2 247/8/2 256/8/2
f 248/8/2 249/8/2 257/8/2
f 257/8/2 249/8/2 258/8/2
f 241/6/2 242/6/2 259/6/2
f 233/5/2 241/5/2 259/5/2
f 259/6/2 242/6/2 260/6/2
f 260/6/2 242/6/2 261/6/2
f 242/8/2 243/8/2 262/8/2
f 261/6/2 242/6/2 262/6/2
f 262/8/2 243/8/2 263/8/2
f 243/5/2 234/5/2 264/5/2
f 263/8/2 243/8/2 264/8/2
f 244/9/2 255/9/2 265/9/2
f 265/9/2 255/9/2 266/9/2
f 233/5/2 259/5/2 267/5/2
f 259/5/2 260/5/2 267/5/2
f 260/6/2 261/6/2 268/6/2
f 267/5/2 260/5/2 268/5/2
f 262/8/2 263/8/2 269/8/2
f 268/6/2 261/6/2 269/6/2
f 261/8/2 262/8/2 269/8/2
f 263/5/2 264/5/2 270/5/2
f 269/8/2 263/8/2 270/8/2
f 264/5/2 234/5/2 271/5/2
f 270/5/2 264/5/2 271/5/2
f 275/9/3 273/9/3 272/9/3
f 276/9/3 273/9/3 275/9/3
f 278/9/3 275/9/3 274/9/3
f 279/10/3 276/10/3 275/10/3
f 279/9/3 275/9/3 278/9/3
f 280/9/3 277/9/3 276/9/3
f 280/10/3 276/10/3 279/10/3
f 281/9/3 277/9/3 280/9/3
f 282/9/3 280/9/3 279/9/3
f 283/9/3 280/9/3 282/9/3
f 287/8/3 285/8/3 284/8/3
f 288/8/3 285/8/3 287/8/3
f 289/9/3 287/9/3 286/9/3
f 290/9/3 287/9/3 289/9/3
f 292/8/3 291/8/3 290/8/3
f 293/8/3 291/8/3 292/8/3
f 296/8/3 295/8/3 294/8/3
f 297/8/3 295/8/3 296/8/3
f 300/8/3 299/8/3 298/8/3
f 301/8/3 299/8/3 300/8/3
f 304/3/3 303/3/3 302/3/3
f 305/3/3 303/3/3 304/3/3
f 306/3/3 304/3/3 302/3/3
f 308/3/3 306/3/3 302/3/3
f 308/3/3 307/3/3 306/3/3
f 309/3/3 307/3/3 308/3/3
f 312/5/3 311/5/3 310/5/3
f 313/5/3 311/5/3 312/5/3
f 316/9/3 314/9/3 313/9/3
f 317/9/3 314/9/3 316/9/3
f 318/5/3 316/5/3 315/5/3
f 319/5/3 316/5/3 318/5/3
f 322/9/3 321/9/3 320/9/3
f 323/9/3 321/9/3 322/9/3
f 326/9/3 325/9/3 324/9/3
f 327/9/3 325/9/3 326/9/3
f 330/9/3 329/9/3 328/9/3
f 331/9/3 329/9/3 330/9/3
f 334/9/3 333/9/3 332/9/3
f 335/9/3 333/9/3 334/9/3
f 338/2/3 337/2/3 336/2/3
f 339/2/3 337/2/3 338/2/3
f 342/1/3 341/1/3 340/1/3
f 343/1/3 341/1/3 342/1/3
f 344/2/3 343/2/3 342/2/3
f 345/2/3 343/2/3 344/2/3
f 346/1/3 345/1/3 344/1/3
f 347/1/3 345/1/3 346/1/3
f 348/9/4 349/9/4 350/9/4
f 350/9/4 349/9/4 351/9/4
f 351/9/4 352/9/4 354/9/4
f 354/9/4 352/9/4 355/9/4
f 353/9/4 354/9/4 356/9/4
f 356/9/4 354/9/4 357/9/4
f 358/8/4 359/8/4 360/8/4
f 360/8/4 359/8/4 361/8/4
f 362/8/4 363/8/4 364/8/4
f 364/8/4 363/8/4 365/8/4
f 366/8/4 367/8/4 368/8/4
f 368/8/4 367/8/4 369/8/4
f 370/8/4 371/8/4 372/8/4
f 372/8/4 371/8/4 373/8/4
f 374/3/4 375/3/4 376/3/4
f 376/3/4 375/3/4 377/3/4
f 374/3/4 376/3/4 378/3/4
f 374/3/4 378/3/4 380/3/4
f 378/3/4 379/3/4 380/3/4
f 380/3/4 379/3/4 381/3/4
f 382/9/4 383/9/4 384/9/4
f 384/9/4 383/9/4 385/9/4
f 386/9/4 387/9/4 388/9/4
f 388/9/4 387/9/4 389/9/4
f 390/9/4 391/9/4 392/9/4
f 392/9/4 391/9/4 393/9/4
f 394/5/4 395/5/4 396/5/4
f 396/5/4 395/5/4 397/5/4
f 398/9/4 399/9/4 400/9/4
f 400/9/4 399/9/4 401/9/4
f 396/9/4 397/9/4 402/9/4
f 402/9/4 397/9/4 403/9/4
f 400/9/4 401/9/4 405/9/4
f 405/9/4 401/9/4 406/9/4
f 403/5/4 404/5/4 407/5/4
f 402/5/4 403/5/4 407/5/4
f 404/5/4 405/5/4 407/5/4
f 407/5/4 405/5/4 408/5/4
f 409/9/4 410/9/4 411/9/4
f 411/9/4 410/9/4 412/9/4
f 413/1/4 414/1/4 415/1/4
f 415/1/4 414/1/4 416/1/4
f 415/2/4 416/2/4 417/2/4
f 417/2/4 416/2/4 418/2/4
f 417/1/4 418/1/4 419/1/4
f 419/1/4 418/1/4 420/1/4
f 421/1/4 422/1/4 423/1/4
f 423/1/4 422/1/4 424/1/4
f 421/1/4 423/1/4 425/1/4
f 423/2/4 424/2/4 425/2/4
f 424/1/4 422/1/4 426/1/4
f 425/2/4 424/2/4 426/2/4
f 421/1/4 425/1/4 427/1/4
f 425/1/4 426/1/4 427/1/4
f 426/1/4 422/1/4 428/1/4
f 427/1/4 426/1/4 428/1/4
f 431/9/5 430/9/5 429/9/5
f 432/9/5 430/9/5 431/9/5
f 435/3/5 434/3/5 433/3/5
f 436/3/5 434/3/5 435/3/5
f 437/4/5 436/4/5 435/4/5
f 438/4/5 436/4/5 437/4/5
f 439/3/5 438/3/5 437/3/5
f 440/3/5 438/3/5 439/3/5
f 441/4/5 440/4/5 439/4/5
f 442/4/5 440/4/5 441/4/5
f 443/3/5 442/3/5 441/3/5
f 444/3/5 442/3/5 443/3/5
f 447/9/5 446/9/5 445/9/5
f 448/9/5 446/9/5 447/9/5
f 451/9/5 450/9/5 449/9/5
f 452/9/5 450/9/5 451/9/5
f 457/1/5 454/1/5 453/1/5
f 457/2/5 455/2/5 454/2/5
f 458/1/5 456/1/5 455/1/5
f 458/2/5 455/2/5 457/2/5
f 459/1/5 457/1/5 453/1/5
f 459/1/5 458/1/5 457/1/5
f 460/1/5 456/1/5 458/1/5
f 460/1/5 458/1/5 459/1/5
f 463/9/5 462/9/5 461/9/5
f 464/9/5 462/9/5 463/9/5
f 467/10/5 466/10/5 465/10/5
f 468/10/5 466/10/5 467/10/5
f 469/11/5 468/11/5 467/11/5
f 470/11/5 468/11/5 469/11/5
f 472/8/5 470/8/5 469/8/5
f 473/8/5 470/8/5 472/8/5
f 475/9/5 473/9/5 472/9/5
f 475/5/5 472/5/5 471/5/5
f 476/5/5 474/5/5 473/5/5
f 476/9/5 473/9/5 475/9/5
f 477/5/5 475/5/5 471/5/5
f 478/5/5 474/5/5 476/5/5
f 479/5/5 477/5/5 471/5/5
f 479/9/5 478/9/5 477/9/5
f 480/5/5 474/5/5 478/5/5
f 480/9/5 478/9/5 479/9/5
f 481/5/5 479/5/5 471/5/5
f 482/5/5 474/5/5 480/5/5
f 483/5/5 481/5/5 471/5/5
f 484/9/5 482/9/5 481/9/5
f 484/5/5 481/5/5 483/5/5
f 485/5/5 474/5/5 482/5/5
f 485/9/5 482/9/5 484/9/5
f 486/5/5 474/5/5 485/5/5
f 490/9/5 488/9/5 487/9/5
f 491/9/5 488/9/5 490/9/5
f 493/8/5 490/8/5 489/8/5
f 494/8/5 490/8/5 493/8/5
f 495/8/5 492/8/5 491/8/5
f 496/8/5 492/8/5 495/8/5
f 499/2/5 498/2/5 497/2/5
f 500/2/5 498/2/5 499/2/5
f 501/2/5 498/2/5 500/2/5
f 502/2/5 498/2/5 501/2/5
f 507/9/5 504/9/5 503/9/5
f 508/9/5 504/9/5 507/9/5
f 509/9/5 506/9/5 505/9/5
f 510/9/5 506/9/5 509/9/5
f 511/8/5 508/8/5 507/8/5
f 512/8/5 508/8/5 511/8/5
f 513/8/5 510/8/5 509/8/5
f 514/8/5 510/8/5 513/8/5
f 518/2/5 516/2/5 515/2/5
f 518/2/5 517/2/5 516/2/5
f 519/2/5 517/2/5 518/2/5
f 522/9/5 521/9/5 520/9/5
f 523/9/5 521/9/5 522/9/5
f 524/9/6 525/9/6 526/9/6
f 526/9/6 525/9/6 527/9/6
f 528/8/6 529/8/6 532/8/6
f 532/8/6 529/8/6 533/8/6
f 530/8/6 531/8/6 534/8/6
f 534/8/6 531/8/6 535/8/6
f 536/3/6 537/3/6 540/3/6
f 540/3/6 537/3/6 541/3/6
f 538/3/6 539/3/6 542/3/6
f 542/3/6 539/3/6 543/3/6
f 540/2/6 541/2/6 544/2/6
f 544/2/6 541/2/6 545/2/6
f 542/2/6 543/2/6 546/2/6
f 546/2/6 543/2/6 547/2/6
f 544/3/6 545/3/6 548/3/6
f 548/3/6 545/3/6 549/3/6
f 546/3/6 547/3/6 550/3/6
f 550/3/6 547/3/6 551/3/6
f 548/2/6 549/2/6 552/2/6
f 552/2/6 549/2/6 553/2/6
f 550/2/6 551/2/6 554/2/6
f 554/2/6 551/2/6 555/2/6
f 552/3/6 553/3/6 556/3/6
f 556/3/6 553/3/6 557/3/6
f 554/3/6 555/3/6 558/3/6
f 558/3/6 555/3/6 559/3/6
f 560/8/6 561/8/6 564/8/6
f 562/8/6 563/8/6 565/8/6
f 560/8/6 564/8/6 566/8/6
f 566/8/6 564/8/6 567/8/6
f 565/8/6 563/8/6 568/8/6
f 568/8/6 563/8/6 569/8/6
f 570/8/6 571/8/6 574/8/6
f 574/8/6 571/8/6 575/8/6
f 572/8/6 573/8/6 576/8/6
f 576/8/6 573/8/6 577/8/6
f 578/1/6 579/1/6 582/1/6
f 580/1/6 581/1/6 582/1/6
f 579/1/6 580/1/6 582/1/6
f 582/1/6 581/1/6 583/1/6
f 582/2/6 583/2/6 584/2/6
f 584/2/6 583/2/6 585/2/6
f 585/2/6 583/2/6 586/2/6
f 586/2/6 583/2/6 587/2/6
f 584/1/6 585/1/6 588/1/6
f 585/2/6 586/2/6 589/2/6
f 588/1/6 585/1/6 589/1/6
f 586/1/6 587/1/6 590/1/6
f 589/2/6 586/2/6 590/2/6
f 590/1/6 587/1/6 591/1/6
f 588/2/6 589/2/6 592/2/6
f 589/2/6 590/2/6 592/2/6
f 590/2/6 591/2/6 592/2/6
f 592/2/6 591/2/6 593/2/6
f 592/1/6 593/1/6 594/1/6
f 594/1/6 593/1/6 595/1/6
f 596/9/6 597/9/6 600/9/6
f 600/9/6 597/9/6 601/9/6
f 598/9/6 599/9/6 602/9/6
f 602/9/6 599/9/6 603/9/6
f 601/9/6 602/9/6 604/9/6
f 604/9/6 602/9/6 605/9/6
f 604/8/6 605/8/6 606/8/6
f 606/8/6 605/8/6 607/8/6
f 606/9/6 607/9/6 608/9/6
f 608/9/6 607/9/6 609/9/6
f 608/8/6 609/8/6 610/8/6
f 610/8/6 609/8/6 611/8/6
f 610/9/6 611/9/6 612/9/6
f 612/9/6 611/9/6 613/9/6
f 612/10/6 613/10/6 614/10/6
f 614/10/6 613/10/6 615/10/6
f 614/11/6 615/11/6 616/11/6
f 616/11/6 615/11/6 617/11/6
f 616/8/6 617/8/6 619/8/6
f 619/8/6 617/8/6 620/8/6
f 618/5/6 619/5/6 622/5/6
f 622/5/6 619/5/6 623/5/6
f 620/5/6 621/5/6 624/5/6
f 624/5/6 621/5/6 625/5/6
f 624/6/6 625/6/6 626/6/6
f 626/6/6 625/6/6 627/6/6
f 622/9/6 623/9/6 628/9/6
f 628/9/6 623/9/6 629/9/6
f 626/8/6 627/8/6 630/8/6
f 630/8/6 627/8/6 631/8/6
f 628/5/6 629/5/6 632/5/6
f 632/5/6 629/5/6 633/5/6
f 630/5/6 631/5/6 635/5/6
f 635/5/6 631/5/6 636/5/6
f 632/1/6 633/1/6 637/1/6
f 633/2/6 634/2/6 638/2/6
f 637/1/6 633/1/6 638/1/6
f 634/1/6 635/1/6 639/1/6
f 638/2/6 634/2/6 639/2/6
f 639/1/6 635/1/6 640/1/6
f 641/9/6 642/9/6 643/9/6
f 643/9/6 642/9/6 644/9/6
f 645/9/6 646/9/6 647/9/6
f 647/9/6 646/9/6 648/9/6
f 648/9/6 646/9/6 649/9/6
f 649/9/6 646/9/6 650/9/6
f 651/9/6 652/9/6 653/9/6
f 653/9/6 652/9/6 654/9/6
